<?xml version="1.0" encoding="utf-8"?>
<!-- Generator: Adobe Illustrator 21.0.0, SVG Export Plug-In . SVG Version: 6.00 Build 0)  -->
<svg version="1.1" id="Layer_1" xmlns="http://www.w3.org/2000/svg" xmlns:xlink="http://www.w3.org/1999/xlink" x="0px" y="0px"
	 viewBox="0 0 214.5 279" style="enable-background:new 0 0 214.5 279;" xml:space="preserve">
<style type="text/css">
	.st0{fill:#CCE9FF;}
	.st1{fill:#452600;}
	.st2{fill:#CC460A;}
	.st3{fill:#B1CEE0;}
</style>
<g>
	<g>
		<path class="st0" d="M184.3,123c1.9-8.8,2.4-20.5,0.8-35.9c-5.3-49.5-27.4-90.8-45-85.8c-15.5,4.4-12.5,42.3-7.2,90.9
			c-8.1-2-16.5-3.1-25.1-3.1s-17.1,1.1-25.1,3.1c5.2-48.6,8.3-86.5-7.2-90.9c-17.6-5-39.6,36.3-45,85.8c-1.7,15.4-1.1,27.1,0.8,35.9
			c-19,20.4-30.7,48.2-30.7,79c0,62.3,48,77.9,107.2,77.9S215,264.3,215,201.9C215,171.2,203.3,143.3,184.3,123z"/>
	</g>
	<g>
		<g>
			<path class="st1" d="M61.8,186.2c0,3.5-0.7-0.7-6.3-0.7c-3.5,0-5.6,4.2-7,0.7c-1.3-3.2,2.1-7,7-6.3
				C58.9,180.4,61.8,182.8,61.8,186.2z"/>
		</g>
		<g>
			<path class="st1" d="M153.7,186.2c0,3.5,0.7-0.7,6.3-0.7c3.5,0,5.6,4.2,7,0.7c1.3-3.2-2.1-7-7-6.3
				C156.6,180.4,153.7,182.8,153.7,186.2z"/>
		</g>
	</g>
	<g>
		<path class="st2" d="M101.5,203c0-3.5,2.8-2.1,6.3-2.1s6.3-1.4,6.3,2.1s-4.9,6.3-6.3,6.3S101.5,206.5,101.5,203z"/>
	</g>
	<g>
		<g>
			<g>
				<path class="st3" d="M66,94.1c2.6-24.4,4.4-43.5-0.8-45.5c-5.8-2.2-13.9,18.5-16.6,42.9c-0.8,7-0.8,12.4-0.5,16.6
					c5.4-3.8,11.2-7.1,17.3-9.9C65.7,96.9,65.8,95.5,66,94.1z"/>
			</g>
			<g>
				<path class="st3" d="M166.9,91.5c-2.6-24.4-10.7-45.1-16.6-42.9c-5.2,1.9-3.4,21.1-0.8,45.5c0.2,1.4,0.3,2.8,0.5,4.1
					c6.1,2.7,11.9,6.1,17.3,9.9C167.7,103.9,167.6,98.5,166.9,91.5z"/>
			</g>
		</g>
		<g>
			<g>
				<g>
					<circle class="st3" cx="20.1" cy="204" r="1.7"/>
				</g>
				<g>
					<circle class="st3" cx="31.2" cy="195.7" r="1.7"/>
				</g>
				<g>
					<circle class="st3" cx="35.4" cy="209.6" r="1.7"/>
				</g>
			</g>
			<g>
				<g>
					<circle class="st3" cx="195.4" cy="204" r="1.7"/>
				</g>
				<g>
					<circle class="st3" cx="184.3" cy="195.7" r="1.7"/>
				</g>
				<g>
					<circle class="st3" cx="180.1" cy="209.6" r="1.7"/>
				</g>
			</g>
		</g>
	</g>
</g>
</svg>
